<?xml version="1.0" encoding="utf-8"?>
<!-- Generator: Adobe Illustrator 24.1.0, SVG Export Plug-In . SVG Version: 6.00 Build 0)  -->
<svg version="1.1" id="Layer_1" xmlns="http://www.w3.org/2000/svg" xmlns:xlink="http://www.w3.org/1999/xlink" x="0px" y="0px"
	 viewBox="0 0 841.9 595.3" style="enable-background:new 0 0 841.9 595.3;" xml:space="preserve">
<style type="text/css">
	.st0{display:none;}
	.st1{display:inline;enable-background:new    ;}
	.st2{clip-path:url(#SVGID_2_);}
	.st3{clip-path:url(#SVGID_4_);}
	.st4{clip-path:url(#SVGID_8_);fill:#FFE6D1;}
	.st5{clip-path:url(#SVGID_10_);}
	.st6{clip-path:url(#SVGID_14_);fill:#E7751F;}
	.st7{clip-path:url(#SVGID_14_);fill:#F4BD8A;}
	.st8{opacity:0.58;clip-path:url(#SVGID_14_);}
	.st9{clip-path:url(#SVGID_16_);fill:#F4BD8A;}
	.st10{clip-path:url(#SVGID_14_);fill:#6A220C;}
	.st11{clip-path:url(#SVGID_14_);fill:#FFE6D1;}
	.st12{clip-path:url(#SVGID_18_);fill:#F4BD8A;}
	.st13{clip-path:url(#SVGID_20_);fill:#F4BD8A;}
	.st14{clip-path:url(#SVGID_22_);fill:#F4BD8A;}
	.st15{clip-path:url(#SVGID_24_);fill:#F4BD8A;}
	.st16{clip-path:url(#SVGID_26_);fill:#F4BD8A;}
	.st17{fill:#FFE6D1;}
	.st18{fill:#E7751F;}
	.st19{fill:#F4BD8A;}
	.st20{opacity:0.58;fill:#F4BD8A;enable-background:new    ;}
	.st21{fill:#6A220C;}
</style>
<g id="Layer_1_1_" class="st0">
	<g class="st1">
		<g>
			<defs>
				<rect id="SVGID_1_" x="257" y="176.1" width="309.2" height="218.7"/>
			</defs>
			<clipPath id="SVGID_2_">
				<use xlink:href="#SVGID_1_"  style="overflow:visible;"/>
			</clipPath>
			<g class="st2">
				<defs>
					<rect id="SVGID_3_" x="257" y="176.1" width="309.2" height="218.7"/>
				</defs>
				<clipPath id="SVGID_4_">
					<use xlink:href="#SVGID_3_"  style="overflow:visible;"/>
				</clipPath>
				<g class="st3">
					<defs>
						<rect id="SVGID_5_" x="364.2" y="227.2" width="88.2" height="107.6"/>
					</defs>
					<clipPath id="SVGID_6_">
						<use xlink:href="#SVGID_5_"  style="overflow:visible;"/>
					</clipPath>
				</g>
				<g class="st3">
					<defs>
						<rect id="SVGID_7_" x="257" y="176.1" width="309.2" height="218.7"/>
					</defs>
					<clipPath id="SVGID_8_">
						<use xlink:href="#SVGID_7_"  style="overflow:visible;"/>
					</clipPath>
					<path class="st4" d="M499,242.3c0.5,0.2,0.8,0.3,1.3,0.2c1.6-0.4,6.2-3.1,6.9-3.8c0.9-0.9,3.6-6.8,3.6-6.8l-0.5-17.4
						c0,0-2.4-8.9-3.6-9.2c-1.3-0.4-7.6-4-8.7-3.1c-0.8,0.7-5.7,3.9-8,5.5c-0.8,0.5-1.3,1.4-1.4,2.3l-0.5,5.2l0.5,13.6
						c0,0.3,0,1.2,0.1,1.5l1.4,6.4c0.3,0.7,2.5,2.6,3.3,3L499,242.3z"/>
					<path class="st4" d="M415.4,238.1c0.5,0.2,0.8,0.3,1.3,0.2c1.6-0.4,6.2-3.1,6.9-3.8c0.9-0.9,3.6-6.8,3.6-6.8l-0.5-17.4
						c0,0-2.4-8.9-3.6-9.2c-1.3-0.4-7.6-4-8.7-3.1c-0.8,0.7-5.7,3.9-8,5.5c-0.8,0.5-1.3,1.4-1.4,2.3l-0.5,5.2l0.5,13.6
						c0,0.3,0,1.2,0.1,1.5l1.4,6.4c0.3,0.7,2.5,2.6,3.3,3L415.4,238.1z"/>
					<path class="st4" d="M495.9,334.8c0.5,0.2,0.8,0.3,1.3,0.2c1.6-0.4,6.2-3.1,6.9-3.8c0.9-0.9,3.6-6.8,3.6-6.8l-0.5-17.4
						c0,0-2.4-8.9-3.6-9.2c-1.3-0.4-7.6-4-8.7-3.1c-0.8,0.7-5.7,3.9-8,5.5c-0.8,0.5-1.3,1.4-1.4,2.3l-0.5,5.2l0.5,13.6
						c0,0.3,0,1.2,0.1,1.5l1.4,6.4c0.3,0.7,2.5,2.6,3.3,3L495.9,334.8z"/>
					<path class="st4" d="M412.4,330.5c0.5,0.2,0.8,0.3,1.3,0.2c1.6-0.4,6.2-3.1,6.9-3.8c0.9-0.9,3.6-6.8,3.6-6.8l-0.5-17.4
						c0,0-2.4-8.9-3.6-9.2c-1.3-0.4-7.6-4-8.7-3.1c-0.8,0.7-5.7,3.9-8,5.5c-0.8,0.5-1.3,1.4-1.4,2.3l-0.5,5.2l0.5,13.6
						c0,0.3,0,1.2,0.1,1.5l1.4,6.4c0.3,0.7,2.5,2.6,3.3,3L412.4,330.5z"/>
					<path class="st4" d="M309.4,239.8c0.5,0.2,0.8,0.3,1.3,0.2c1.6-0.4,6.2-3.1,6.9-3.8c0.9-0.9,3.6-6.8,3.6-6.8l-0.5-17.4
						c0,0-2.3-8.9-3.6-9.2c-1.3-0.4-7.6-4-8.7-3.1c-0.8,0.7-5.7,3.9-8,5.5c-0.8,0.5-1.3,1.4-1.4,2.3l-0.5,5.2l0.5,13.6
						c0,0.3,0,1.2,0.1,1.5l1.4,6.4c0.3,0.7,2.5,2.6,3.3,3L309.4,239.8z"/>
				</g>
				<g class="st3">
					<defs>
						<rect id="SVGID_9_" x="556.1" y="186.4" width="10.2" height="139.6"/>
					</defs>
					<clipPath id="SVGID_10_">
						<use xlink:href="#SVGID_9_"  style="overflow:visible;"/>
					</clipPath>
					<g class="st5">
						<defs>
							<rect id="SVGID_11_" x="556.1" y="186.4" width="85.6" height="139.6"/>
						</defs>
						<clipPath id="SVGID_12_">
							<use xlink:href="#SVGID_11_"  style="overflow:visible;"/>
						</clipPath>
						<g style="clip-path:url(#SVGID_12_);">
							
								<image style="overflow:visible;" width="466" height="760" xlink:href="C3357A6CA4A203A5.png"  transform="matrix(0.1837 0 0 0.1837 556.1137 186.3941)">
							</image>
						</g>
					</g>
				</g>
				<g class="st3">
					<defs>
						<rect id="SVGID_13_" x="257" y="176.1" width="309.2" height="218.7"/>
					</defs>
					<clipPath id="SVGID_14_">
						<use xlink:href="#SVGID_13_"  style="overflow:visible;"/>
					</clipPath>
					<path class="st6" d="M509.2,289.4c0,0,26.2-14,26-20.6c-0.2-7.2-3.3-9.2-7.4-12.3c-2.4-1.8-7.5-0.2-8.2-1.8c-1-2.5,1-7.4,1.1-9
						c0.1-1.5-0.5-4.9-0.7-7.9c-0.2-3.1-0.5-13.4-0.5-13.4s-1.3-9-2.2-10.5c-0.9-1.4-3.6-10.3-4.7-12.1c-1.1-1.8-7.2-6.7-9.2-6.1
						c-2,0.5-7.2,3.1-7.2,3.1l-0.5,7c0,0,1.6-2.3,4.5-1.4c2.9,0.9,5.8,1.3,6.7,2.7c0.9,1.4,3.1,6.7,3.1,9s0.4,9,0.4,9
						s-2.9,13.6-3.1,15.9c-0.2,2.3-0.7,8.9-0.2,10.7c0.5,1.5,1.3,14.3,8.2,15.4c11.6,2,0.6,9.6-2.9,16"/>
					<path class="st7" d="M482,281.2c0.2-3.4,0.7-10.9,2.9-13.2c2.2-2.3,5.6-8.8,5.8-11.6c0.2-2.7,1.8-16.6,0.6-18.4
						c-1.3-1.8-2.2-6.7-2-9.4c0.2-2.7,0.4-8.3-0.2-9.9c-0.5-1.6-1.1-6,0.4-8.3c1.4-2.3,6.7-4.5,6.7-4.5l0.5-7c0,0-2.7-0.5-5.4,3.1
						c-2.7,3.6-5.4,9.2-6.7,13.6c-1.3,4.3-1.6,18.4-1.6,18.4s1.6,8.6,1.4,10.8c-0.2,2-1.1,4.5-2.5,6c-1.4,1.4-5.9,3.9-6.9,6.8
						c-1,2.9-0.9,8.9-0.6,10.7"/>
					<path class="st6" d="M502.3,215.8l0.5,1.5c0,0,3.2-1.2,4.4-1c1.2,0.2,2.6,1.1,2.6,1.1l-1.2-1.4c-0.1-0.1-0.3-0.3-0.5-0.3
						c-0.7-0.1-2.3-0.5-2.9-0.4C504.4,215.5,502.3,215.8,502.3,215.8"/>
					<g class="st8">
						<g>
							<defs>
								<rect id="SVGID_15_" x="489.1" y="216" width="7.5" height="2.8"/>
							</defs>
							<clipPath id="SVGID_16_">
								<use xlink:href="#SVGID_15_"  style="overflow:visible;"/>
							</clipPath>
							<path class="st9" d="M496.4,217.4l0.3-1.4c0,0-3.6-0.3-4.9,0.3c-1.3,0.6-2.6,2.4-2.6,2.4l0.7-0.1l1.8-1.3
								c0.3-0.2,1-0.4,1.3-0.3L496.4,217.4z"/>
						</g>
					</g>
					<path class="st10" d="M495.2,232.1c0,0,1.7,2,3,2.2c1.4,0.2,3.5,0.1,4.1-0.3c0.6-0.3,2.1-1.7,2.3-1.8c0.2-0.1-3-1.7-3.5-1.4
						c-0.5,0.3-1.4,0.3-1.4,0.3s-1-0.3-1.4-0.2C497.9,231.1,495.2,232.1,495.2,232.1"/>
					<path class="st11" d="M511.4,287.2c0,0,15.9-8.6,16.9-9.7c1-1.1,1.2-1.9,1.2-1.9l-3.3,1.4l1.1-3.1l-2.3,1.4l0.1-1.6l-2.2,1.3
						l0.1-2.1l-1.8,0.9l0.4-4.8l-1.2,3L511.4,287.2z"/>
					<path class="st6" d="M441.8,291.3c0,0,10.1-20,9.9-26.7c-0.2-7.2-3.3-9.2-7.4-12.3c-2.4-1.8-7.5-0.2-8.2-1.8
						c-1-2.5,1-7.4,1.1-9c0.1-1.5-0.5-4.9-0.7-7.9c-0.2-3.1-0.5-13.4-0.5-13.4s-1.3-9-2.2-10.5s-3.6-10.3-4.7-12.1
						c-1.1-1.8-7.2-6.7-9.2-6.1c-2,0.5-7.2,3.1-7.2,3.1l-0.5,7c0,0,1.6-2.3,4.5-1.4c2.9,0.9,5.8,1.3,6.7,2.7c0.9,1.4,3.1,6.7,3.1,9
						c0,2.3,0.4,9,0.4,9s-2.9,13.6-3.1,15.9c-0.2,2.4-0.7,8.9-0.2,10.7c0.5,1.5,1.3,14.3,8.2,15.4c11.6,2,8.2,26.1,9.2,18.8"/>
					<path class="st7" d="M398.5,277c0.2-3.4,0.7-10.9,2.9-13.2c2.2-2.4,5.6-8.8,5.8-11.6c0.2-2.7,1.8-16.6,0.6-18.4
						c-1.3-1.8-2.2-6.7-2-9.4c0.2-2.7,0.4-8.3-0.2-9.9s-1.1-6,0.4-8.3c1.4-2.3,6.7-4.5,6.7-4.5l0.5-7c0,0-2.7-0.5-5.4,3.1
						c-2.7,3.6-5.4,9.2-6.7,13.6c-1.3,4.3-1.6,18.4-1.6,18.4s1.6,8.6,1.4,10.8c-0.2,2-1.1,4.5-2.5,6c-1.4,1.4-5.9,3.9-6.9,6.8
						c-1,2.9-0.9,8.9-0.6,10.7"/>
					<path class="st6" d="M418.8,211.6l0.5,1.5c0,0,3.2-1.2,4.4-1c1.2,0.2,2.6,1.1,2.6,1.1l-1.2-1.4c-0.1-0.1-0.3-0.3-0.5-0.3
						c-0.7-0.1-2.3-0.5-2.9-0.4C420.9,211.3,418.8,211.6,418.8,211.6"/>
					<g class="st8">
						<g>
							<defs>
								<rect id="SVGID_17_" x="405.6" y="211.8" width="7.5" height="2.8"/>
							</defs>
							<clipPath id="SVGID_18_">
								<use xlink:href="#SVGID_17_"  style="overflow:visible;"/>
							</clipPath>
							<path class="st12" d="M412.9,213.2l0.3-1.4c0,0-3.6-0.3-4.9,0.3c-1.3,0.6-2.6,2.4-2.6,2.4l0.7-0.1l1.8-1.3
								c0.3-0.2,1-0.4,1.3-0.3L412.9,213.2z"/>
						</g>
					</g>
					<path class="st10" d="M411.6,227.9c0,0,1.7,2,3,2.2c1.4,0.2,3.5,0.1,4.1-0.3c0.6-0.3,2.1-1.7,2.3-1.8c0.2-0.1-3-1.7-3.5-1.4
						c-0.5,0.3-1.4,0.3-1.4,0.3s-1-0.3-1.4-0.2C414.3,226.9,411.6,227.9,411.6,227.9"/>
					<path class="st6" d="M359.4,225.7c0,0-12.5,3.1-15.4,12.8c-2.1,6.9-2.9,11.6-5.6,14.3c-2.1,2.1-7.5,1-8.2-0.6
						c-1-2.5,1-7.4,1.1-9c0.1-1.5-0.5-4.9-0.7-7.9c-0.2-3.1-0.5-13.4-0.5-13.4s-1.3-9-2.2-10.5c-0.9-1.4-3.6-10.3-4.7-12.1
						c-1.1-1.8-7.2-6.7-9.2-6.1c-2,0.5-7.2,3.1-7.2,3.1l-0.5,7c0,0,1.6-2.3,4.5-1.4c2.9,0.9,5.8,1.3,6.7,2.7c0.9,1.4,3.1,6.7,3.1,9
						c0,2.3,0.4,9,0.4,9s-2.9,13.6-3.1,15.9c-0.2,2.3-0.7,8.9-0.2,10.7c0.5,1.5,1.3,14.3,8.2,15.4c11.6,2,30.4-13.3,31.3-20.6"/>
					<path class="st7" d="M292.5,278.7c0.2-3.4,0.7-10.9,2.9-13.2c2.2-2.3,5.6-8.8,5.8-11.6c0.2-2.7,1.8-16.6,0.6-18.4
						c-1.3-1.8-2.2-6.7-2-9.4c0.2-2.7,0.4-8.3-0.2-9.9c-0.5-1.6-1.1-6,0.4-8.3c1.4-2.3,6.7-4.5,6.7-4.5l0.5-7c0,0-2.7-0.5-5.4,3.1
						c-2.7,3.6-5.4,9.2-6.7,13.6c-1.3,4.3-1.6,18.4-1.6,18.4s1.6,8.6,1.4,10.8c-0.2,2-1.1,4.5-2.5,6c-1.4,1.4-5.9,3.9-6.9,6.8
						c-1,2.9-0.9,8.9-0.6,10.7"/>
					<path class="st6" d="M312.8,213.3l0.5,1.5c0,0,3.2-1.2,4.4-1c1.2,0.2,2.6,1.1,2.6,1.1l-1.2-1.4c-0.1-0.1-0.3-0.3-0.5-0.3
						c-0.7-0.1-2.3-0.5-2.9-0.4C314.9,213,312.8,213.3,312.8,213.3"/>
					<g class="st8">
						<g>
							<defs>
								<rect id="SVGID_19_" x="299.6" y="213.5" width="7.5" height="2.8"/>
							</defs>
							<clipPath id="SVGID_20_">
								<use xlink:href="#SVGID_19_"  style="overflow:visible;"/>
							</clipPath>
							<path class="st13" d="M306.9,214.9l0.3-1.4c0,0-3.6-0.3-4.9,0.3c-1.3,0.6-2.6,2.4-2.6,2.4l0.7-0.1l1.8-1.3
								c0.3-0.2,1-0.4,1.3-0.3L306.9,214.9z"/>
						</g>
					</g>
					<path class="st10" d="M305.7,229.6c0,0,1.7,2,3,2.2c1.4,0.2,3.5,0.1,4.1-0.3c0.6-0.3,2.1-1.7,2.3-1.8c0.2-0.1-3-1.7-3.5-1.4
						c-0.5,0.3-1.4,0.3-1.4,0.3s-1-0.3-1.4-0.2C308.3,228.6,305.7,229.6,305.7,229.6"/>
					<path class="st11" d="M344.6,237.4c0,0,2.1-4.2,3.2-5c1-0.8,5.5-4.5,6.5-4.6c1-0.1,4.8-1.8,4.8-1.8l-0.8,7.9l-0.9,6.8l-1.3,1.9
						l-0.1-1.7l-2.4,3.2l0.3-3.5l-1.8,1.2l-0.4-3.3l-2,3.7l-1-3.7l-1.4,2.4l-0.6-2.7l-1.3,1.8L344.6,237.4z"/>
					<path class="st11" d="M413.4,200.6c0,0,0.4-1.3,1.9-1.1c1.5,0.2,4.5,1,5.1,1.1c0.7,0.1,2.7,0.6,3.6,1.9
						c0.9,1.3,2.5,3.8,2.5,3.8l-1.2-4.6l2.7,2.4l-0.9-3.1l1.9,1.1l-0.4-1.5l2.3,1.9l-0.6-2.6c0,0-0.1-0.7-0.6-1.5
						c-0.5-0.8-3.8-4.5-6.4-5.3l-2.6-0.8l-7,2.5L413.4,200.6z"/>
					<path class="st10" d="M522.3,388c0,0,10.1-20,9.9-26.7c-0.2-7.2-3.3-9.2-7.4-12.3c-2.4-1.8-7.5-0.2-8.2-1.8c-1-2.5,1-7.4,1.1-9
						c0.1-1.5-0.5-4.9-0.7-7.9c-0.2-3.1-0.5-13.4-0.5-13.4s-1.3-9-2.2-10.5c-0.9-1.4-3.6-10.3-4.7-12.1c-1.1-1.8-7.2-6.7-9.2-6.1
						c-2,0.5-7.2,3.1-7.2,3.1l-0.5,7.1c0,0,1.6-2.4,4.5-1.4c2.9,0.9,5.8,1.3,6.7,2.7c0.9,1.4,3.1,6.7,3.1,9c0,2.4,0.4,9,0.4,9
						s-2.9,13.6-3.1,15.9c-0.2,2.3-0.7,8.9-0.2,10.7c0.5,1.5,1.3,14.3,8.2,15.4c11.6,2,8.2,26.1,9.2,18.8"/>
					<g class="st8">
						<g>
							<defs>
								<rect id="SVGID_21_" x="471.1" y="291.2" width="22.6" height="82.5"/>
							</defs>
							<clipPath id="SVGID_22_">
								<use xlink:href="#SVGID_21_"  style="overflow:visible;"/>
							</clipPath>
							<path class="st14" d="M479,373.7c0.2-3.4,0.7-10.9,2.9-13.2c2.2-2.3,5.6-8.8,5.8-11.6c0.2-2.7,1.8-16.6,0.6-18.4
								c-1.3-1.8-2.2-6.7-2-9.4c0.2-2.7,0.4-8.3-0.2-9.9c-0.5-1.6-1.1-6,0.4-8.3c1.4-2.4,6.7-4.5,6.7-4.5l0.5-7c0,0-2.7-0.5-5.4,3.1
								c-2.7,3.6-5.4,9.2-6.7,13.6c-1.3,4.3-1.6,18.4-1.6,18.4s1.6,8.6,1.4,10.8c-0.2,2-1.1,4.5-2.5,6c-1.4,1.4-5.9,3.9-6.9,6.8
								c-1,2.9-0.9,8.9-0.6,10.7"/>
						</g>
					</g>
					<path class="st6" d="M499.3,308.3l0.5,1.5c0,0,3.2-1.2,4.4-1c1.2,0.2,2.6,1.1,2.6,1.1l-1.2-1.4c-0.1-0.1-0.3-0.3-0.5-0.3
						c-0.7-0.1-2.3-0.5-2.9-0.4C501.4,308,499.3,308.3,499.3,308.3"/>
					<g class="st8">
						<g>
							<defs>
								<rect id="SVGID_23_" x="486.1" y="308.5" width="7.5" height="2.8"/>
							</defs>
							<clipPath id="SVGID_24_">
								<use xlink:href="#SVGID_23_"  style="overflow:visible;"/>
							</clipPath>
							<path class="st15" d="M493.4,309.9l0.3-1.4c0,0-3.6-0.3-4.9,0.3c-1.3,0.6-2.6,2.4-2.6,2.4l0.7-0.1l1.8-1.3
								c0.3-0.2,1-0.4,1.3-0.3L493.4,309.9z"/>
						</g>
					</g>
					<path class="st7" d="M492.2,324.6c0,0,1.7,2,3,2.2c1.4,0.2,3.5,0.1,4.1-0.3c0.6-0.3,2.1-1.7,2.3-1.8c0.2-0.1-3-1.7-3.5-1.4
						c-0.5,0.3-1.4,0.3-1.4,0.3s-1-0.3-1.4-0.2C494.9,323.6,492.2,324.6,492.2,324.6"/>
					<path class="st11" d="M522.5,386.1c0,0,7.8-16.3,7.9-17.7c0.1-1.4-0.1-2.2-0.1-2.2l-1.8,3l-0.9-3.1l-1,2.5l-0.9-1.4l-1,2.3
						l-1.1-1.8l-0.9,1.8l-2.5-4.1l0.8,3.1L522.5,386.1z"/>
					<path class="st10" d="M438.8,383.8c0,0,10.1-20,9.9-26.7c-0.2-7.2-3.3-9.2-7.4-12.3c-2.4-1.8-7.5-0.2-8.2-1.8
						c-1-2.5,1-7.4,1.1-9c0.1-1.5-0.5-4.9-0.7-7.9c-0.2-3.1-0.5-13.4-0.5-13.4s-1.3-9-2.2-10.5c-0.9-1.4-3.6-10.3-4.7-12.1
						c-1.1-1.8-7.2-6.7-9.2-6.1c-2,0.5-7.2,3.1-7.2,3.1l-0.5,7.1c0,0,1.6-2.4,4.5-1.4c2.9,0.9,5.8,1.3,6.7,2.7
						c0.9,1.4,3.1,6.7,3.1,9c0,2.4,0.4,9,0.4,9s-2.9,13.6-3.1,15.9c-0.2,2.3-0.7,8.9-0.2,10.7c0.5,1.5,1.3,14.3,8.2,15.4
						c11.6,2,8.2,26.1,9.2,18.8"/>
					<path class="st7" d="M395.5,369.5c0.2-3.4,0.7-10.9,2.9-13.2c2.2-2.3,5.6-8.8,5.8-11.6c0.2-2.7,1.8-16.6,0.6-18.4
						c-1.3-1.8-2.2-6.7-2-9.4c0.2-2.7,0.4-8.3-0.2-9.9c-0.5-1.6-1.1-6,0.4-8.3c1.4-2.3,6.7-4.5,6.7-4.5l0.5-7c0,0-2.7-0.5-5.4,3.1
						c-2.7,3.6-5.4,9.2-6.7,13.6c-1.3,4.3-1.6,18.4-1.6,18.4s1.6,8.6,1.4,10.8c-0.2,2-1.1,4.5-2.5,6c-1.4,1.4-5.9,3.9-6.9,6.8
						c-1,2.9-0.9,8.9-0.6,10.7"/>
					<path class="st6" d="M415.8,304.1l0.5,1.5c0,0,3.2-1.2,4.4-1c1.2,0.2,2.6,1.1,2.6,1.1l-1.2-1.4c-0.1-0.1-0.3-0.3-0.5-0.3
						c-0.7-0.1-2.3-0.5-2.9-0.4C417.9,303.8,415.8,304.1,415.8,304.1"/>
					<g class="st8">
						<g>
							<defs>
								<rect id="SVGID_25_" x="402.6" y="304.3" width="7.5" height="2.8"/>
							</defs>
							<clipPath id="SVGID_26_">
								<use xlink:href="#SVGID_25_"  style="overflow:visible;"/>
							</clipPath>
							<path class="st16" d="M409.9,305.7l0.3-1.4c0,0-3.6-0.3-4.9,0.3c-1.3,0.6-2.6,2.4-2.6,2.4l0.7-0.1l1.8-1.3
								c0.3-0.2,1-0.4,1.3-0.3L409.9,305.7z"/>
						</g>
					</g>
					<path class="st6" d="M408.6,320.4c0,0,1.7,2,3,2.2c1.4,0.2,3.5,0.1,4.1-0.3c0.6-0.3,2.1-1.7,2.3-1.8c0.2-0.1-3-1.7-3.5-1.4
						c-0.5,0.3-1.4,0.3-1.4,0.3s-1-0.3-1.4-0.2C411.3,319.4,408.6,320.4,408.6,320.4"/>
				</g>
			</g>
		</g>
	</g>
</g>
<path class="st17" d="M414.4,291.2c1.8,0.6,3,1.1,4.8,0.6c6.1-1.7,23.4-11.7,26-14.3c3.4-3.4,13.6-25.5,13.6-25.5l-2.1-64.9
	c0,0-8.8-33.2-13.5-34.5c-4.7-1.4-28.5-14.9-32.5-11.6c-3,2.5-21.3,14.7-30.1,20.5c-3,1.9-5,5.2-5.2,8.8l-1.9,19.4l1.9,50.9
	c0,1,0,4.5,0.3,5.5L381,270c1,2.5,9.5,9.8,12.5,11.1L414.4,291.2z"/>
<path class="st18" d="M513.2,490.5c0,0,37.8-75,37.1-99.9c-0.7-27-12.4-34.4-27.5-46.1c-8.8-6.9-28.1-0.7-30.5-6.9
	c-3.7-9.2,3.6-27.8,4.1-33.6s-1.9-18.2-2.6-29.7c-0.7-11.6-1.8-50.2-1.8-50.2s-4.7-33.8-8.1-39.2s-13.5-38.7-17.6-45.4
	s-27.1-25.2-34.5-23.1S404.7,128,404.7,128l-2.1,26.4c0,0,6.1-8.8,16.9-5.4c10.9,3.4,21.7,4.7,25,10.2c3.4,5.4,11.6,25,11.6,33.8
	s1.4,33.8,1.4,33.8s-10.9,50.8-11.6,59.6c-0.7,8.8-2.8,33.2-0.7,39.9c1.7,5.6,4.8,53.4,30.8,57.8c43.5,7.3,30.7,98,34.4,70.6"/>
<path class="st19" d="M351,437c0.7-12.9,2.6-40.7,10.7-49.5c8.1-8.8,20.9-33.2,21.6-43.3c0.7-10.2,6.9-62.2,2.1-69.1
	c-4.8-6.9-8.1-25-7.4-35.2c0.7-10.2,1.4-31.1-0.7-37.3c-2.1-6.1-4.1-22.3,1.4-31.1c5.4-8.8,25-16.9,25-16.9l2.1-26.4
	c0,0-10.2-2.1-20.4,11.6c-10.2,13.5-20.4,34.5-25,50.8c-4.7,16.2-6.1,69.1-6.1,69.1s6.2,32.2,5.1,40.6c-1,7.3-4,16.9-9.5,22.3
	c-5.4,5.4-22.1,14.6-25.7,25.5c-3.7,11-3.6,33.2-2.2,40"/>
<path class="st18" d="M427.1,192.2l1.8,5.8c0,0,12-4.4,16.5-3.6c4.4,1,9.8,4,9.8,4l-4.4-5.1c-0.6-0.6-1.1-1-1.8-1.1
	c-2.5-0.6-8.5-1.7-11-1.5C434.8,191.1,427.1,192.2,427.1,192.2z"/>
<path class="st20" d="M404.8,198.2l1-5.1c0,0-13.5-1.2-18.4,1c-5,2.2-9.8,8.9-9.8,8.9l2.8-0.3l6.7-4.8c1.1-0.7,3.7-1.4,5-1.1
	L404.8,198.2z"/>
<path class="st21" d="M400.3,253.1c0,0,6.2,7.6,11.4,8.1c5.2,0.6,13.1,0.3,15.3-1.1c2.2-1.4,8-6.2,8.5-6.7
	c0.7-0.4-11.4-6.5-13.1-5.4c-1.7,1.1-5.1,1.2-5.1,1.2s-3.9-1.1-5.1-0.7C410.3,249.3,400.3,253.1,400.3,253.1z"/>
<path class="st17" d="M407,150.8c0,0,1.4-5,7-4.3c5.6,0.7,16.8,3.9,19.3,4.3c2.5,0.4,10.2,2.3,13.5,7c3.3,4.7,9.5,14.3,9.5,14.3
	l-4.7-17.3l10,9.1l-3.6-11.8l7,4l-1.4-5.6l8.7,7.3l-2.2-9.9c0,0-0.6-2.6-2.3-5.5s-14.3-16.8-24.1-19.7c-9.8-2.9-9.8-2.9-9.8-2.9
	l-26.3,9.2L407,150.8z"/>
</svg>
